<?xml version="1.0" encoding="UTF-8" standalone="no"?>
<!DOCTYPE svg PUBLIC "-//W3C//DTD SVG 1.1//EN" "http://www.w3.org/Graphics/SVG/1.1/DTD/svg11.dtd">
<svg width="100%" height="100%" viewBox="0 0 24 24" version="1.1" xmlns="http://www.w3.org/2000/svg" xmlns:xlink="http://www.w3.org/1999/xlink" xml:space="preserve" xmlns:serif="http://www.serif.com/" style="fill-rule:evenodd;clip-rule:evenodd;stroke-linejoin:round;stroke-miterlimit:2;">
    <g transform="matrix(1.5,0,0,1.5,-11.25,-10.5)">
        <circle cx="15.5" cy="15" r="8" style="fill:rgb(43,165,222);"/>
    </g>
    <rect x="0" y="0" width="24" height="24" style="fill:none;fill-rule:nonzero;"/>
    <g transform="matrix(0.833333,0,0,0.833333,2.66667,2.5)">
        <path d="M13,3L6,3L6,21L10,21L10,15L13,15C16.31,15 19,12.31 19,9C19,5.69 16.31,3 13,3ZM13.2,11L10,11L10,7L13.2,7C14.3,7 15.2,7.9 15.2,9C15.2,10.1 14.3,11 13.2,11Z" style="fill:white;fill-rule:nonzero;"/>
    </g>
</svg>
