<?xml version="1.0" encoding="UTF-8" standalone="no"?>
<!DOCTYPE svg PUBLIC "-//W3C//DTD SVG 1.1//EN" "http://www.w3.org/Graphics/SVG/1.1/DTD/svg11.dtd">
<svg width="100%" height="100%" viewBox="0 0 24 24" version="1.1" xmlns="http://www.w3.org/2000/svg" xmlns:xlink="http://www.w3.org/1999/xlink" xml:space="preserve" xmlns:serif="http://www.serif.com/" style="fill-rule:evenodd;clip-rule:evenodd;stroke-linejoin:round;stroke-miterlimit:2;">
    <rect x="0" y="0" width="24" height="24" style="fill:none;fill-rule:nonzero;"/>
    <g transform="matrix(1,0,0,1,0,-3)">
        <path d="M24,9C24,5.689 21.311,3 18,3L6,3C2.689,3 0,5.689 0,9L0,21C0,24.311 2.689,27 6,27L18,27C21.311,27 24,24.311 24,21L24,9Z" style="fill:rgb(251,51,61);"/>
    </g>
    <path d="M14,6L10.25,11L13.1,14.8L11.5,16C9.81,13.75 7,10 7,10L1,18L23,18L14,6Z" style="fill:white;fill-rule:nonzero;"/>
</svg>
