<?xml version="1.0" encoding="UTF-8" standalone="no"?>
<!DOCTYPE svg PUBLIC "-//W3C//DTD SVG 1.1//EN" "http://www.w3.org/Graphics/SVG/1.1/DTD/svg11.dtd">
<svg width="100%" height="100%" viewBox="0 0 24 24" version="1.1" xmlns="http://www.w3.org/2000/svg" xmlns:xlink="http://www.w3.org/1999/xlink" xml:space="preserve" xmlns:serif="http://www.serif.com/" style="fill-rule:evenodd;clip-rule:evenodd;stroke-linejoin:round;stroke-miterlimit:2;">
    <path d="M24.01,6C24.01,2.689 21.321,0 18.01,0L6,0C2.689,0 0,2.689 0,6L0,18C0,21.311 2.689,24 6,24L18.01,24C21.321,24 24.01,21.311 24.01,18L24.01,6Z" style="fill:rgb(39,164,79);"/>
    <rect x="0.01" y="0" width="24" height="24" style="fill:none;fill-rule:nonzero;"/>
    <path d="M5.5,22L5.5,14.5L4,14.5L4,9C4,7.9 4.9,7 6,7L9,7C10.1,7 11,7.9 11,9L11,14.5L9.5,14.5L9.5,22L5.5,22ZM18,22L18,16L21,16L18.46,8.37C18.18,7.55 17.42,7 16.56,7L16.44,7C15.58,7 14.81,7.55 14.54,8.37L12,16L15,16L15,22L18,22ZM7.5,6C8.61,6 9.5,5.11 9.5,4C9.5,2.89 8.61,2 7.5,2C6.39,2 5.5,2.89 5.5,4C5.5,5.11 6.39,6 7.5,6ZM16.5,6C17.61,6 18.5,5.11 18.5,4C18.5,2.89 17.61,2 16.5,2C15.39,2 14.5,2.89 14.5,4C14.5,5.11 15.39,6 16.5,6Z" style="fill:white;fill-rule:nonzero;"/>
</svg>
