<?xml version="1.0" encoding="UTF-8" standalone="no"?>
<!DOCTYPE svg PUBLIC "-//W3C//DTD SVG 1.1//EN" "http://www.w3.org/Graphics/SVG/1.1/DTD/svg11.dtd">
<svg width="100%" height="100%" viewBox="0 0 24 24" version="1.1" xmlns="http://www.w3.org/2000/svg" xmlns:xlink="http://www.w3.org/1999/xlink" xml:space="preserve" xmlns:serif="http://www.serif.com/" style="fill-rule:evenodd;clip-rule:evenodd;stroke-linejoin:round;stroke-miterlimit:2;">
    <rect x="4.5" y="6" width="15.5" height="13" style="fill:white;"/>
    <rect x="0" y="0" width="24" height="24" style="fill:none;fill-rule:nonzero;"/>
    <circle cx="12" cy="12" r="3.2" style="fill:rgb(163,163,163);"/>
    <path d="M9,2L7.17,4L4,4C2.9,4 2,4.9 2,6L2,18C2,19.1 2.9,20 4,20L20,20C21.1,20 22,19.1 22,18L22,6C22,4.9 21.1,4 20,4L16.83,4L15,2L9,2ZM12,17C9.24,17 7,14.76 7,12C7,9.24 9.24,7 12,7C14.76,7 17,9.24 17,12C17,14.76 14.76,17 12,17Z" style="fill:rgb(163,163,163);fill-rule:nonzero;"/>
</svg>
