<?xml version="1.0" encoding="utf-8"?>
<!-- Generator: Adobe Illustrator 26.0.0, SVG Export Plug-In . SVG Version: 6.00 Build 0)  -->
<svg version="1.2" baseProfile="tiny" id="Layer_1" xmlns="http://www.w3.org/2000/svg" xmlns:xlink="http://www.w3.org/1999/xlink"
	 x="0px" y="0px" viewBox="0 0 562.6 154" overflow="visible" xml:space="preserve">
<g>
	<path d="M236.6,117.6h-24.2V81.3l-15,22.7v0.1h-12.7v-0.4L169.5,81l0.1,36.6h-24.2V36H164l27,38l27-38h18.6V117.6z"/>
	<path d="M282.8,57v60.6h-24.2V57h-24.2V36h72.7v21H282.8z"/>
	<path d="M378.4,94.7c0,13.7-10.6,22.9-29.3,22.9h-44.3V36h41.3c18,0,28.7,8.6,28.7,21.8c0,7.1-4,15.4-11.2,18.1
		C373.1,78.1,378.4,86.3,378.4,94.7z M328.9,68.5h12.8c6.1,0,9.6-2.9,9.6-7.1c0-4.6-3.4-6.6-9.6-6.6h-12.8V68.5z M344.5,98.5
		c7.1,0,10.2-2.8,10.2-7.2c0-4.3-3.1-6.4-10.1-6.4h-15.7v13.6H344.5z"/>
</g>
<path fill="#0C8442" d="M446.7,87H458c-3.7,18.2-18.2,30.5-37.5,30.5c-22.6,0-40.7-17.5-40.7-40.7S397.9,36,420.5,36
	c19.3,0,33.8,12.3,37.5,30.5h-11.3c-3.2-12.3-12.8-19.9-26.2-19.9c-16.8,0-29.7,12.7-29.7,30.2s12.9,30.2,29.7,30.2
	C434,107,443.5,99.4,446.7,87z"/>
<path fill="#0C8442" d="M542.8,76.8c0,22.6-18.2,40.7-40.7,40.7s-40.7-18.2-40.7-40.7S479.5,36,502,36S542.8,54.2,542.8,76.8z
	 M531.6,76.8c0-16.7-12.9-30.5-29.6-30.5c-16.8,0-29.7,13.8-29.7,30.5c0,16.7,12.9,30.5,29.7,30.5
	C518.7,107.3,531.6,93.5,531.6,76.8z"/>
<g>
	<path fill="#0C8442" d="M58.5,99.1c3.9-3.8,6.6-8.7,9.3-13.5c0.8-1.4,1.5-2.9,1.3-4.4c-0.3-2.1-2.4-3.4-3.3-5.2
		c-1.5-2.9-0.2-6.4,1.9-8.9c2-2.5,4.7-4.5,6.3-7.3c4.3-7.1,0.8-16.2,2.3-24.3c0.2-0.9,0.4-1.9,0.6-2.8l-5.2-5.2L21.9,77.1l27.5,27.5
		C52.8,103.6,56,101.6,58.5,99.1z"/>
	<path fill="#0C8442" d="M86,41.7c-1.4,3.2-2.7,6.5-3.3,9.9c-1,5.6-0.4,11.9-3.9,16.3c-0.8,1-1.8,1.9-2.5,3.1
		c-0.8,1.3-1,2.8-1.1,4.3c-0.3,5.2,1.2,10.2,2.2,15.3c0.9,5.1,1.1,10.7-1.6,15.1c-0.9,1.5-2.2,2.7-3.4,4c-3,3-6.1,5.9-9.6,8.2
		l8.9,8.9l49.7-49.7L86,41.7z"/>
</g>
</svg>
